<!--?xml version="1.0" standalone="no"?-->
              <svg id="sw-js-blob-svg" viewBox="0 0 100 100" xmlns="http://www.w3.org/2000/svg" version="1.1">
                    <defs> 
                        <linearGradient id="sw-gradient" x1="0" x2="1" y1="1" y2="0">
                            <stop id="stop1" stop-color="rgba(248, 117, 55, 1)" offset="0%"></stop>
                            <stop id="stop2" stop-color="rgba(251, 168, 31, 1)" offset="100%"></stop>
                        </linearGradient>
                    </defs>
                <path fill="url(#sw-gradient)" d="M17.1,-26.1C22.9,-22.9,28.8,-19.4,31.2,-14.2C33.6,-9.1,32.5,-2.3,31.5,4.6C30.6,11.5,30,18.4,25.7,20.9C21.4,23.4,13.6,21.5,7.3,22.2C0.9,22.9,-3.9,26.2,-10.5,27.9C-17,29.5,-25.4,29.4,-27.6,25C-29.8,20.6,-25.8,11.8,-25.1,4.7C-24.3,-2.4,-26.8,-7.9,-25.6,-12.2C-24.4,-16.5,-19.5,-19.7,-14.7,-23.2C-9.8,-26.8,-4.9,-30.8,0.4,-31.4C5.7,-32,11.3,-29.2,17.1,-26.1Z" width="100%" height="100%" transform="translate(50 50)" stroke-width="0" style="transition: all 0.3s ease 0s;"></path>
              </svg>