<!--?xml version="1.0" standalone="no"?-->
              <svg id="sw-js-blob-svg" viewBox="0 0 100 100" xmlns="http://www.w3.org/2000/svg" version="1.1">
                    <defs> 
                        <linearGradient id="sw-gradient" x1="0" x2="1" y1="1" y2="0">
                            <stop id="stop1" stop-color="rgba(245, 98, 175, 1)" offset="0%"></stop>
                            <stop id="stop2" stop-color="rgba(254, 204, 143, 1)" offset="100%"></stop>
                        </linearGradient>
                    </defs>
                <path fill="url(#sw-gradient)" d="M19.3,-27.3C26.4,-25.5,34.6,-22.5,38,-16.9C41.3,-11.2,39.8,-2.8,37.2,4.3C34.6,11.5,30.9,17.5,25.5,20.2C20.2,22.8,13.2,22,6.4,25.8C-0.4,29.6,-7,38,-11.6,37.5C-16.2,37.1,-18.7,27.8,-19.4,20.4C-20,13.1,-18.8,7.8,-19.9,2.6C-21.1,-2.6,-24.6,-7.7,-25.4,-13.9C-26.2,-20.1,-24.2,-27.3,-19.5,-30.3C-14.8,-33.3,-7.4,-32,-0.7,-31C6.1,-30,12.2,-29.2,19.3,-27.3Z" width="100%" height="100%" transform="translate(50 50)" stroke-width="0" style="transition: all 0.3s ease 0s;"></path>
              </svg>