<!--?xml version="1.0" standalone="no"?-->
              <svg id="sw-js-blob-svg" viewBox="0 0 100 100" xmlns="http://www.w3.org/2000/svg" version="1.1">
                    <defs> 
                        <linearGradient id="sw-gradient" x1="0" x2="1" y1="1" y2="0">
                            <stop id="stop1" stop-color="rgba(248, 117, 55, 1)" offset="0%"></stop>
                            <stop id="stop2" stop-color="rgba(251, 168, 31, 1)" offset="100%"></stop>
                        </linearGradient>
                    </defs>
                <path fill="url(#sw-gradient)" d="M15.2,-23.1C22.3,-19,32.6,-19.3,35.2,-15.5C37.7,-11.8,32.5,-3.9,29.5,2.9C26.5,9.7,25.6,15.6,23.3,22.7C21,29.9,17.4,38.4,11.9,39.6C6.4,40.8,-1,34.7,-9.2,32C-17.4,29.3,-26.4,30,-28,25.6C-29.6,21.3,-23.8,11.9,-23.5,4.2C-23.3,-3.5,-28.7,-9.5,-30,-16.5C-31.2,-23.5,-28.3,-31.5,-22.6,-36.2C-16.9,-41,-8.4,-42.5,-2.2,-39.1C4,-35.6,8,-27.1,15.2,-23.1Z" width="100%" height="100%" transform="translate(50 50)" stroke-width="0" style="transition: all 0.3s ease 0s;"></path>
              </svg>