<!--?xml version="1.0" standalone="no"?-->
              <svg id="sw-js-blob-svg" viewBox="0 0 100 100" xmlns="http://www.w3.org/2000/svg" version="1.1">
                    <defs> 
                        <linearGradient id="sw-gradient" x1="0" x2="1" y1="1" y2="0">
                            <stop id="stop1" stop-color="rgba(245, 98, 175, 1)" offset="0%"></stop>
                            <stop id="stop2" stop-color="rgba(254, 204, 143, 1)" offset="100%"></stop>
                        </linearGradient>
                    </defs>
                <path fill="url(#sw-gradient)" d="M26.6,-33.4C32.3,-26.8,33.4,-16.5,33,-7.5C32.5,1.5,30.6,9,26.3,14C22,19.1,15.4,21.6,9,23.3C2.6,25,-3.6,25.9,-8.6,24C-13.7,22,-17.7,17.3,-24,11.4C-30.3,5.5,-38.9,-1.4,-40.4,-9.5C-41.8,-17.7,-36.1,-27,-28.2,-33.2C-20.3,-39.4,-10.1,-42.5,0.1,-42.6C10.4,-42.8,20.8,-40,26.6,-33.4Z" width="100%" height="100%" transform="translate(50 50)" stroke-width="0" style="transition: all 0.3s ease 0s;"></path>
              </svg>