<!--?xml version="1.0" standalone="no"?-->
              <svg id="sw-js-blob-svg" viewBox="0 0 100 100" xmlns="http://www.w3.org/2000/svg" version="1.1">
                    <defs> 
                        <linearGradient id="sw-gradient" x1="0" x2="1" y1="1" y2="0">
                            <stop id="stop1" stop-color="rgba(245, 98, 175, 1)" offset="0%"></stop>
                            <stop id="stop2" stop-color="rgba(254, 204, 143, 1)" offset="100%"></stop>
                        </linearGradient>
                    </defs>
                <path fill="url(#sw-gradient)" d="M12.9,-18.8C16.5,-15.2,18.8,-11.1,23.1,-5.7C27.4,-0.3,33.6,6.3,32.8,11.2C31.9,16,24,19.1,17.4,20.8C10.7,22.5,5.4,22.9,-0.8,23.9C-6.9,25,-13.8,26.7,-17.5,24.1C-21.2,21.4,-21.8,14.3,-25.5,7.3C-29.2,0.2,-36.1,-6.9,-36,-13.1C-35.9,-19.3,-28.8,-24.7,-21.7,-27.1C-14.5,-29.5,-7.3,-29,-1.3,-27.2C4.7,-25.5,9.4,-22.4,12.9,-18.8Z" width="100%" height="100%" transform="translate(50 50)" stroke-width="0" style="transition: all 0.3s ease 0s;"></path>
              </svg>